{"scene":0,"asset":{"generator":"ImageToStl.com","version":"2.0"},"scenes":[{"name":"Scene","nodes":[0]}],"nodes":[{"name":"Node0","children":[1]},{"name":"Node1","mesh":0}],"materials":[{"name":"default","pbrMetallicRoughness":{"baseColorFactor":[0.64,0.64,0.24,1.0],"metallicFactor":0.5,"roughnessFactor":0.90392154},"emissiveFactor":[0.0,0.0,0.0],"doubleSided":true}],"meshes":[{"name":"Mesh0","primitives":[{"indices":3,"material":0,"attributes":{"POSITION":0,"NORMAL":1,"TEXCOORD_0":2}}]}],"accessors":[{"bufferView":0,"componentType":5126,"count":2321,"type":"VEC3","min":[-0.667448,-2.117627,0.005754],"max":[0.742467,1.888654,6.437579]},{"bufferView":1,"componentType":5126,"count":2321,"type":"VEC3"},{"bufferView":2,"componentType":5126,"count":2321,"type":"VEC2"},{"bufferView":3,"componentType":5123,"count":14418,"type":"SCALAR"}],"bufferViews":[{"target":34962,"buffer":0,"byteLength":27852,"byteOffset":0},{"target":34962,"buffer":0,"byteLength":27852,"byteOffset":27852},{"target":34962,"buffer":0,"byteLength":18568,"byteOffset":55704},{"target":34963,"buffer":0,"byteLength":28836,"byteOffset":74272}],"buffers":[{"byteLength":103108,"uri":"data:application/octet-stream;base64,"}]}